# xmcd
#
# Track frame offsets:
#	150
#	16062
#	36405
#	56287
#	70004
#	94749
#	108268
#	126140
#	141665
#	164321
#	174816
#	188665
#	203536
#	216457
#	224215
#
# Disc length: 3292 seconds
#
# Revision: 0
# Processed by: cddbd v1.4PL0 Copyright (c) Steve Scherf et al.
# Submitted via: dBpowerAMP V4.0
#
DISCID=d80cda0f
DTITLE=Blues 'n' Trouble - First Trouble
DYEAR=1900
DGENRE=Blues
TTITLE0=Born In Chigago
TTITLE1=Natural Born Lover
TTITLE2=C.T.
TTITLE3=Downtown Saturday Night
TTITLE4=Blues 'n' Trouble
TTITLE5=Sloppy Drunk
TTITLE6=Tearstains On My Pillow
TTITLE7=Mystery Train
TTITLE8=Wake Up Mama
TTITLE9=Deep Blue Feeling
TTITLE10=Spank The Plank
TTITLE11=Texas
TTITLE12=What's The Matter
TTITLE13=Red Hot
TTITLE14=Wake Up Mama ( Original LP version )
EXTD=\n
EXTT0=
EXTT1=
EXTT2=
EXTT3=
EXTT4=
EXTT5=
EXTT6=
EXTT7=
EXTT8=
EXTT9=
EXTT10=
EXTT11=
EXTT12=
EXTT13=
EXTT14=
PLAYORDER=
